<?xml version="1.0" standalone="no"?>
<!DOCTYPE svg PUBLIC "-//W3C//DTD SVG 20010904//EN"
 "http://www.w3.org/TR/2001/REC-SVG-20010904/DTD/svg10.dtd">
<svg version="1.0" xmlns="http://www.w3.org/2000/svg"
 width="200.000000pt" height="200.000000pt" viewBox="0 0 200.000000 200.000000"
 preserveAspectRatio="xMidYMid meet">

<g transform="translate(0.000000,200.000000) scale(0.100000,-0.100000)"
fill="#000000" stroke="none">
<path d="M1245 1851 c-22 -10 -45 -27 -52 -38 -9 -17 -20 -20 -60 -16 -59 5
-105 -20 -130 -73 -17 -35 -17 -40 10 -168 l27 -132 -31 -84 c-16 -46 -32 -87
-35 -92 -3 -4 -19 2 -37 12 -59 36 -148 15 -178 -42 -6 -13 -13 -24 -14 -25
-1 -2 -17 2 -35 7 -47 14 -103 -3 -134 -41 l-26 -31 0 -272 c0 -310 9 -387 65
-543 19 -54 35 -110 35 -125 0 -31 25 -59 45 -52 26 10 17 82 -25 203 -38 113
-60 213 -60 278 l0 32 48 -5 c39 -5 53 -2 82 18 19 13 39 33 44 44 9 19 16 21
70 17 53 -4 65 -2 90 18 42 33 56 77 56 173 l0 85 49 -32 c26 -18 61 -39 77
-48 22 -11 34 -29 47 -71 9 -30 17 -59 17 -65 0 -5 -18 -18 -41 -28 -50 -23
-111 -90 -144 -162 -30 -62 -29 -87 2 -91 17 -3 26 6 43 45 45 103 95 153 170
168 19 4 38 12 41 17 3 5 -8 55 -26 111 l-32 102 -59 32 c-80 43 -114 82 -114
133 0 21 3 41 8 43 14 9 207 -75 234 -101 14 -15 47 -74 73 -131 l48 -104 -6
-126 c-6 -140 -25 -220 -82 -349 -48 -111 -63 -178 -44 -198 21 -20 49 -8 49
22 0 13 12 54 26 91 97 254 115 326 116 478 1 72 -4 110 -15 136 -9 20 -41
147 -72 282 l-55 246 60 166 c55 152 60 169 50 205 -10 37 -59 90 -83 90 -7 0
-21 2 -32 5 -11 3 -38 -3 -60 -14z m89 -62 c15 -12 26 -30 26 -44 0 -37 -72
-229 -80 -213 -4 7 -15 49 -25 93 -9 44 -22 88 -27 99 -12 23 5 60 36 74 31
15 40 14 70 -9z m-190 -55 c9 -4 21 -14 26 -23 5 -10 36 -139 69 -287 34 -148
63 -279 66 -291 5 -22 4 -21 -57 8 -35 16 -69 33 -77 37 -15 9 -120 442 -121
496 0 51 44 79 94 60z m-59 -522 c-2 -2 -14 2 -28 10 -25 13 -25 13 -9 53 l16
39 12 -49 c7 -27 11 -51 9 -53z m-168 -14 c22 -21 23 -26 23 -198 0 -200 -6
-220 -65 -220 -37 0 -62 19 -71 54 -3 13 -4 96 -2 185 3 157 4 163 27 182 31
25 59 24 88 -3z m-195 -75 c16 -14 18 -35 18 -200 0 -170 -1 -184 -20 -203
-24 -24 -57 -26 -88 -4 -21 15 -22 20 -22 201 0 159 2 189 17 205 20 22 70 23
95 1z"/>
</g>
</svg>
